# AST/ASF file generated using VICON BodyLanguage
# -----------------------------------------------
:version 1.10
:name VICON
:units
  mass 1.0
  length 0.45
  angle deg
:documentation
   .ast/.asf automatically generated from VICON data using
   VICON BodyBuilder and BodyLanguage model FoxedUp or BRILLIANT.MOD
:root
   order TX TY TZ RX RY RZ
   axis XYZ
   position 0 0 0  
   orientation 0 0 0 
:bonedata
  begin
     id 1 
     name lhipjoint
     direction 0.645893 -0.654526 0.392961 
     length 2.38111 
     axis 0 0 0  XYZ
  end
  begin
     id 2 
     name lfemur
     direction 0.34202 -0.939693 0  
     length 6.6822  
     axis 0 0 20  XYZ
    dof rx ry rz
    limits (-160.0 20.0)
           (-70.0 70.0)
           (-60.0 70.0)
  end
  begin
     id 3 
     name ltibia
     direction 0.34202 -0.939693 0   
     length 6.93904   
     axis 0 0 20   XYZ
    dof rx
    limits (-10.0 170.0)
  end
  begin
     id 4 
     name lfoot
     direction 0.0694967 -0.190941 0.979138   
     length 2.13616   
     axis -90 7.62852e-016 20   XYZ
    dof rx rz
    limits (-45.0 90.0)
           (-70.0 20.0)
  end
  begin
     id 5 
     name ltoes
     direction 1.535e-011 -4.2202e-011 1   
     length 1.07536   
     axis -90 7.62852e-016 20   XYZ
    dof rx
    limits (-90.0 20.0)
  end
  begin
     id 6 
     name rhipjoint
     direction -0.700219 -0.612087 0.367481   
     length 2.54621  
     axis 0 0 0  XYZ 
  end
  begin
     id 7 
     name rfemur
     direction -0.34202 -0.939693 0   
     length 6.55353   
     axis 0 0 -20   XYZ
    dof rx ry rz
    limits (-160.0 20.0)
           (-70.0 70.0)
           (-70.0 60.0)
  end
  begin
     id 8 
     name rtibia
     direction -0.34202 -0.939693 0   
     length 6.8736   
     axis 0 0 -20   XYZ
    dof rx
    limits (-10.0 170.0)
 end
 begin
     id 9 
     name rfoot
     direction -0.0679995 -0.186827 0.980037   
     length 2.1218  
     axis -90 -7.62852e-016 -20   XYZ
    dof rx rz
    limits (-45.0 90.0)
           (-20.0 70.0)
  end
  begin
     id 10 
     name rtoes
     direction -1.53589e-011 -4.21772e-011 1   
     length 1.06864   
     axis -90 -7.62852e-016 -20   XYZ
    dof rx
    limits (-90.0 20.0)
  end
  begin
     id 11 
     name lowerback
     direction -0.0416607 0.996347 -0.0745409   
     length 2.12205   
     axis 0 0 0   XYZ
    dof rx ry rz
    limits (-20.0 45.0)
           (-30.0 30.0)
           (-30.0 30.0)
  end
  begin
     id 12 
     name upperback
     direction -0.000153993 0.999276 -0.0380568   
     length 2.12759   
     axis 0 0 0   XYZ
    dof rx ry rz
    limits (-20.0 45.0)
           (-30.0 30.0)
           (-30.0 30.0)
  end
  begin
     id 13 
     name thorax
     direction 0.0187671 0.999821 -0.00241421   
     length 2.13704   
     axis 0 0 0   XYZ
    dof rx ry rz
    limits (-20.0 45.0)
           (-30.0 30.0)
           (-30.0 30.0)
  end
  begin
     id 14 
     name lowerneck
     direction 0.0268157 0.964865 0.261374   
     length 1.65253   
     axis 0 0 0   XYZ
    dof rx ry rz
    limits (-20.0 45.0)
           (-30.0 30.0)
           (-30.0 30.0)
  end
  begin
     id 15 
     name upperneck
     direction 0.00263774 0.939908 -0.341418   
     length 1.72375   
     axis 0 0 0   XYZ
    dof rx ry rz
    limits (-20.0 45.0)
           (-30.0 30.0)
           (-30.0 30.0)
  end
  begin
     id 16
     name head
     direction -0.00526001 0.989001 -0.147818  
     length 1.74878  
     axis 0 0 0   XYZ
    dof rx ry rz
    limits (-20.0 45.0)
           (-30.0 30.0)
           (-30.0 30.0)
  end
  begin
     id 17 
     name lclavicle
     direction 0.881214 0.461162 -0.103884  
     length 3.25108  
     axis 0 0 0   XYZ
    dof ry rz
    limits (-20.0 10.0)
           (0.0 20.0)
  end
  begin
     id 18 
     name lhumerus
     direction 1 -4.4899e-011 3.38092e-027   
     length 4.87408   
     axis 180 -30 -90   XYZ
    dof rx ry rz
    limits (-60.0 90.0)
           (-90.0 90.0)
           (-90.0 90.0)
  end
  begin
     id 19
     name lradius
     direction 1 -4.48931e-011 9.96288e-027   
     length 2.76729   
     axis 180 -30 -90   XYZ
    dof rx
    limits (-10.0 170.0)
  end
  begin
     id 20
     name lwrist
     direction 1 -4.4896e-011 1.50617e-026   
     length 1.38364   
     axis -9.31234e-015 90 90   XYZ
    dof ry
    limits (-180.0 0.0)
 end
  begin
     id 21 
     name lhand
     direction 1 -4.49038e-011 3.01286e-026   
     length 0.98922   
     axis -1.92217e-014 90 90   XYZ
    dof rx rz
    limits (-90.0 90.0)
           (-45.0 45.0)
  end
  begin
     id 22 
     name lfingers
     direction 1 -4.49051e-011 6.02588e-026   
     length 0.797535   
     axis -3.84436e-014 90 90   XYZ
    dof rx
    limits (0.0 90.0)
  end
  begin
     id 23
     name lthumb
     direction 0.707107 -6.34901e-011 0.707107   
     length 1.14511   
     axis -90 45 2.19363e-014   XYZ
    dof rx rz
    limits (-45.0 45.0)
           (-45.0 45.0)
  end
  begin
     id 24 
     name rclavicle
     direction -0.893894 0.441652 -0.0767889   
     length 3.29361  
     axis 0 0 0   XYZ 
    dof ry rz
    limits (-10.0 20.0)
           (-20.0 0.0)
  end
  begin
     id 25 
     name rhumerus
     direction -1 -4.48945e-011 8.0491e-028  
     length 4.71404   
     axis 180 30 90   XYZ
    dof rx ry rz
    limits (-90.0 60.0)
           (-90.0 90.0)
           (-90.0 90.0)
  end
  begin
     id 26 
     name rradius
     direction -1 -4.48986e-011 9.27795e-027   
     length 2.83468   
     axis 180 30 90   XYZ
    dof rx
    limits (-10.0 170.0)
  end
  begin
     id 27 
     name rwrist
     direction -1 -4.49029e-011 1.5064e-026   
     length 1.41734   
     axis -9.31234e-015 -90 -90   XYZ
    dof ry
    limits (-180.0 0.0)
  end
  begin
     id 28
     name rhand
     direction -1 -4.48857e-011 3.01165e-026   
     length 0.868195   
     axis -1.92217e-014 -90 -90   XYZ
    dof rx rz
    limits (-90.0 90.0)
           (-45.0 45.0)
  end
  begin
     id 29
     name rfingers
     direction -1 -4.49048e-011 6.02585e-026   
     length 0.699961   
     axis -3.84436e-014 -90 -90   XYZ
    dof rx
    limits (0.0 90.0)
  end
  begin
     id 30
     name rthumb
     direction -0.707107 -6.34854e-011 0.707107   
     length 1.00501   
     axis -90 -45 -2.19363e-014   XYZ
    dof rx rz
    limits (-45.0 45.0)
           (-45.0 45.0)
  end
:hierarchy
  begin
    root lhipjoint rhipjoint lowerback
    lhipjoint lfemur
    lfemur ltibia
    ltibia lfoot
    lfoot ltoes
    rhipjoint rfemur
    rfemur rtibia
    rtibia rfoot
    rfoot rtoes
    lowerback upperback
    upperback thorax
    thorax lowerneck lclavicle rclavicle
    lowerneck upperneck
    upperneck head
    lclavicle lhumerus
    lhumerus lradius
    lradius lwrist
    lwrist lhand lthumb
    lhand lfingers
    rclavicle rhumerus
    rhumerus rradius
    rradius rwrist
    rwrist rhand rthumb
    rhand rfingers
  end

#!OML:ASF H:\ManfredObstacles\Project 1\Capture day 2\Session 1\male.ASF
:FULLY-SPECIFIED
:DEGREES
215
root 1.2033 15.7686 25.7933 -172.039 12.5328 179.487
lowerback -0.530865 7.44872 1.10872
upperback -1.07814 10.3633 -6.98442
thorax 0.679279 5.38335 -7.64647
lowerneck -35.1573 -0.121315 9.31171
upperneck 40.3405 -9.35505 0.0789951
head 23.0383 -2.4243 -4.72025
rclavicle -3.10104e-014 2.54444e-014
rhumerus -36.8046 -29.8654 -85.4623
rradius 31.6753
rwrist 32.0665
rhand -0.338089 -7.40877
rfingers 7.12502
rthumb 25.2665 -35.7557
lclavicle -3.10104e-014 2.54444e-014
lhumerus -30.3425 -1.28809 74.0156
lradius 19.8642
lwrist -46.6549
lhand 4.73784 7.32674
lfingers 7.12502
lthumb 30.1199 34.8922
rfemur 14.4182 6.46604 25.4237
rtibia -3.18055e-015
rfoot -1.22345 -16.0753
rtoes -25.0535
lfemur -37.7701 -6.06629 -14.3294
ltibia 23.8888
lfoot 9.67028 24.3112
ltoes -4.17142
216
root 1.19592 15.7637 25.6826 -171.962 12.6507 179.587
lowerback -0.705949 7.4555 1.09336
upperback -1.11202 10.3679 -6.94158
thorax 0.731238 5.38286 -7.56915
lowerneck -35.1495 -0.125059 9.24549
upperneck 40.3595 -9.32962 0.0865292
head 23.0592 -2.42544 -4.70032
rclavicle -1.0476e-013 -6.52014e-014
rhumerus -36.651 -29.6514 -85.5963
rradius 31.759
rwrist 32.0099
rhand -0.342649 -7.38117
rfingers 7.12502
rthumb 25.2621 -35.7287
lclavicle -1.0476e-013 -6.52014e-014
lhumerus -30.4989 -0.830489 73.7866
lradius 19.708
lwrist -46.9549
lhand 4.75148 7.34669
lfingers 7.12502
lthumb 30.1329 34.9098
rfemur 14.7514 6.57671 25.427
rtibia 3.18055e-014
rfoot -0.923485 -15.9605
rtoes -25.4912
lfemur -37.5267 -6.10157 -14.254
ltibia 23.7925
lfoot 9.67406 24.7566
ltoes -4.15103
217
root 1.18794 15.758 25.569 -171.884 12.7591 179.682
lowerback -0.90169 7.45944 1.06322
upperback -1.13971 10.369 -6.89058
thorax 0.796457 5.3805 -7.47189
lowerneck -35.1597 -0.126045 9.18296
upperneck 40.3686 -9.28827 0.0780009
head 23.0767 -2.42149 -4.68452
rclavicle 1.39149e-015 3.18055e-015
rhumerus -36.5095 -29.4338 -85.7115
rradius 31.854
rwrist 31.9164
rhand -0.346826 -7.34635
rfingers 7.12502
rthumb 25.2581 -35.6944
lclavicle 1.39149e-015 3.18055e-015
lhumerus -30.6407 -0.308024 73.5436
lradius 19.5235
lwrist -47.3221
lhand 4.73404 7.34112
lfingers 7.12502
lthumb 30.1163 34.9073
rfemur 15.0918 6.67902 25.4211
rtibia 7.95139e-014
rfoot -0.606298 -15.8348
rtoes -25.9508
lfemur -37.2441 -6.09268 -14.2381
ltibia 23.735
lfoot 9.59178 25.1256
ltoes -4.11078
218
root 1.17943 15.7515 25.4522 -171.807 12.8606 179.772
lowerback -1.07052 7.48173 1.06856
upperback -1.18964 10.3994 -6.88892
thorax 0.843265 5.39516 -7.44993
lowerneck -35.1433 -0.134915 9.17512
upperneck 40.3541 -9.3012 0.0955917
head 23.0603 -2.42757 -4.6753
rclavicle 6.85807e-014 2.22639e-014
rhumerus -36.4307 -29.3468 -85.8276
rradius 31.968
rwrist 31.8275
rhand -0.336543 -7.31314
rfingers 7.12502
rthumb 25.268 -35.6598
lclavicle 6.85807e-014 2.22639e-014
lhumerus -30.7545 0.0991305 73.2655
lradius 19.3296
lwrist -47.6799
lhand 4.73679 7.37892
lfingers 7.12502
lthumb 30.1189 34.9446
rfemur 15.442 6.7753 25.4062
rtibia -3.81667e-014
rfoot -0.252838 -15.6969
rtoes -26.4788
lfemur -36.9188 -6.03596 -14.285
ltibia 23.7182
lfoot 9.43205 25.4178
ltoes -4.03546
219
root 1.17032 15.7444 25.3325 -171.727 12.9514 179.849
lowerback -1.25951 7.50431 1.05878
upperback -1.24125 10.4313 -6.88932
thorax 0.897486 5.41094 -7.41884
lowerneck -35.1292 -0.138668 9.19478
upperneck 40.3358 -9.31028 0.0921112
head 23.0373 -2.4308 -4.68055
rclavicle 1.86858e-014 -1.59028e-015
rhumerus -36.3808 -29.2566 -85.9299
rradius 32.1015
rwrist 31.7029
rhand -0.330078 -7.29674
rfingers 7.12502
rthumb 25.2742 -35.6425
lclavicle 1.86858e-014 -1.59028e-015
lhumerus -30.8588 0.640423 72.9169
lradius 19.0881
lwrist -48.285
lhand 4.68871 7.31046
lfingers 7.12502
lthumb 30.073 34.8845
rfemur 15.7955 6.86135 25.3731
rtibia -1.27222e-014
rfoot 0.118549 -15.551
rtoes -27.0539
lfemur -36.569 -5.92025 -14.411
ltibia 23.7496
lfoot 9.22897 25.6291
ltoes -3.93436
220
root 1.16079 15.738 25.2091 -171.644 13.042 179.916
lowerback -1.44246 7.54442 1.06771
upperback -1.31182 10.4909 -6.92838
thorax 0.943168 5.44255 -7.43904
lowerneck -35.0711 -0.166253 9.19628
upperneck 40.3271 -9.3891 0.156257
head 23.0119 -2.45551 -4.66566
rclavicle 7.21588e-014 1.1609e-013
rhumerus -36.3928 -29.2511 -86.0307
rradius 32.261
rwrist 31.5658
rhand -0.328181 -7.26744
rfingers 7.12502
rthumb 25.276 -35.613
lclavicle 7.21588e-014 1.1609e-013
lhumerus -30.9485 1.16346 72.5025
lradius 18.8285
lwrist -49.0396
lhand 4.61477 7.15555
lfingers 7.12502
lthumb 30.0025 34.7424
rfemur 16.1543 6.948 25.3223
rtibia -2.54444e-014
rfoot 0.504479 -15.3923
rtoes -27.6397
lfemur -36.2122 -5.72322 -14.6197
ltibia 23.8358
lfoot 9.10002 25.7073
ltoes -3.84337
221
root 1.15087 15.7333 25.0828 -171.555 13.1213 179.98
lowerback -1.63124 7.57775 1.07623
upperback -1.39437 10.5415 -6.96891
thorax 0.978621 5.46936 -7.46115
lowerneck -35.0226 -0.183151 9.20557
upperneck 40.3326 -9.4618 0.217616
head 23.002 -2.47608 -4.65419
rclavicle 1.20265e-013 -1.35174e-013
rhumerus -36.4431 -29.2519 -86.109
rradius 32.4168
rwrist 31.4454
rhand -0.330536 -7.23532
rfingers 7.12502
rthumb 25.2737 -35.5812
lclavicle 1.20265e-013 -1.35174e-013
lhumerus -31.0602 1.76711 72.0379
lradius 18.5581
lwrist -49.8934
lhand 4.51711 6.94598
lfingers 7.12502
lthumb 29.9093 34.5496
rfemur 16.5107 7.02532 25.2639
rtibia -1.27222e-014
rfoot 0.91306 -15.2163
rtoes -28.2346
lfemur -35.8795 -5.48039 -14.8785
ltibia 23.9808
lfoot 9.12442 25.654
ltoes -3.7033
222
root 1.14078 15.7315 24.9531 -171.467 13.1971 180.029
lowerback -1.83031 7.60942 1.06377
upperback -1.48613 10.5904 -7.0087
thorax 1.00614 5.49519 -7.47036
lowerneck -34.9732 -0.203363 9.19292
upperneck 40.3605 -9.54185 0.289537
head 23.0133 -2.50067 -4.63821
rclavicle 1.91231e-013 -2.06736e-014
rhumerus -36.5404 -29.2429 -86.1645
rradius 32.5882
rwrist 31.3076
rhand -0.339086 -7.21652
rfingers 7.12502
rthumb 25.2655 -35.5635
lclavicle 1.91231e-013 -2.06736e-014
lhumerus -31.1949 2.44631 71.5362
lradius 18.28
lwrist -50.8678
lhand 4.3873 6.66456
lfingers 7.12502
lthumb 29.7854 34.2905
rfemur 16.8712 7.09907 25.1848
rtibia -3.81667e-014
rfoot 1.3522 -15.0161
rtoes -28.7975
lfemur -35.5863 -5.19527 -15.1878
ltibia 24.1831
lfoot 9.41749 25.435
ltoes -3.61649
223
root 1.13074 15.7334 24.8209 -171.388 13.2618 180.056
lowerback -2.02183 7.63434 1.0227
upperback -1.58139 10.6312 -7.04798
thorax 1.01948 5.51684 -7.46556
lowerneck -34.9352 -0.237874 9.11787
upperneck 40.417 -9.64145 0.401702
head 23.0612 -2.53474 -4.59972
rclavicle -3.04141e-014 1.43125e-014
rhumerus -36.6577 -29.2531 -86.1904
rradius 32.7457
rwrist 31.1832
rhand -0.355056 -7.19782
rfingers 7.12502
rthumb 25.2502 -35.547
lclavicle -3.04141e-014 1.43125e-014
lhumerus -31.3399 3.16462 71.0223
lradius 17.9986
lwrist -51.8567
lhand 4.23645 6.37389
lfingers 7.12502
lthumb 29.6414 34.0255
rfemur 17.2354 7.16009 25.079
rtibia 1.90833e-014
rfoot 1.83439 -14.7758
rtoes -29.3155
lfemur -35.3364 -4.90767 -15.5265
ltibia 24.4269
lfoot 9.88971 25.109
ltoes -3.5317
224
root 1.12085 15.7387 24.6866 -171.325 13.3064 180.043
lowerback -2.21665 7.64764 0.942474
upperback -1.65866 10.6603 -7.09475
thorax 1.04613 5.53393 -7.44605
lowerneck -34.9065 -0.26303 9.04949
upperneck 40.4501 -9.72221 0.517819
head 23.0948 -2.56042 -4.55253
rclavicle -8.15017e-014 8.90555e-014
rhumerus -36.7603 -29.2683 -86.2211
rradius 32.911
rwrist 31.0395
rhand -0.367775 -7.19992
rfingers 7.12502
rthumb 25.2381 -35.5508
lclavicle -8.15017e-014 8.90555e-014
lhumerus -31.4539 3.89706 70.5228
lradius 17.7269
lwrist -52.7864
lhand 4.12358 6.16848
lfingers 7.12502
lthumb 29.5337 33.8392
rfemur 17.606 7.1968 24.9308
rtibia 4.13472e-014
rfoot 2.37143 -14.497
rtoes -29.7819
lfemur -35.1212 -4.62697 -15.9039
ltibia 24.6862
lfoot 10.4877 24.6412
ltoes -3.5077
225
root 1.11093 15.7466 24.5508 -171.288 13.3194 179.963
lowerback -2.42187 7.64565 0.788044
upperback -1.70801 10.6745 -7.14634
thorax 1.09315 5.54512 -7.38848
lowerneck -34.897 -0.298643 8.96668
upperneck 40.458 -9.79556 0.629248
head 23.114 -2.58566 -4.50079
rclavicle -5.20816e-014 7.95139e-014
rhumerus -36.8413 -29.272 -86.2487
rradius 33.0785
rwrist 30.8834
rhand -0.395294 -7.20837
rfingers 7.12502
rthumb 25.2117 -35.563
lclavicle -5.20816e-014 7.95139e-014
lhumerus -31.5163 4.62769 70.0686
lradius 17.4518
lwrist -53.5887
lhand 4.05952 6.07754
lfingers 7.12502
lthumb 29.4725 33.759
rfemur 17.9855 7.19432 24.7135
rtibia -5.725e-014
rfoot 2.9609 -14.1884
rtoes -30.1703
lfemur -34.9103 -4.36679 -16.3428
ltibia 24.9301
lfoot 10.9917 24.0823
ltoes -3.38773
